<mxfile host="app.diagrams.net" modified="2020-09-30T12:54:10.541Z" agent="5.0 (Windows NT 10.0; Win64; x64) AppleWebKit/537.36 (KHTML, like Gecko) Chrome/85.0.4183.121 Safari/537.36" etag="dNYaqc89zUhw9-0AZNdg" version="13.7.5" type="github">
  <diagram id="SWDhKAzrlwYPIVpRB-Yo" name="Page-1">
    <mxGraphModel dx="414" dy="265" grid="1" gridSize="10" guides="1" tooltips="1" connect="1" arrows="1" fold="1" page="1" pageScale="1" pageWidth="1169" pageHeight="827" math="1" shadow="0">
      <root>
        <mxCell id="0" />
        <mxCell id="1" parent="0" />
      </root>
    </mxGraphModel>
  </diagram>
</mxfile>
